
[code]
In Time 2011 TS XviD READNFO - MiSTERE
 
http://www.imdb.com/title/tt1637688/


Video
ID                               : 0
Format                           : MPEG-4 Visual
Format profile                   : Advanced Simple@L5
Format settings, BVOP            : 2
Format settings, QPel            : No
Format settings, GMC             : No warppoints
Format settings, Matrix          : Default (H.263)
Muxing mode                      : Packed bitstream
Codec ID                         : XVID
Codec ID/Hint                    : XviD
Duration                         : 1h 41mn
Bit rate                         : 1 791 Kbps
Width                            : 720 pixels
Height                           : 304 pixels
Display aspect ratio             : 2.35:1
Frame rate                       : 25.000 fps
Color space                      : YUV
Chroma subsampling               : 4:2:0
Bit depth                        : 8 bits
Scan type                        : Progressive
Compression mode                 : Lossy
Bits/(Pixel*Frame)               : 0.327
Stream size                      : 1.27 GiB (93%)
Writing library                  : XviD 64

Audio
ID                               : 1
Format                           : MPEG Audio
Format version                   : Version 1
Format profile                   : Layer 3
Mode                             : Joint stereo
Mode extension                   : MS Stereo
Codec ID                         : 55
Codec ID/Hint                    : MP3
Duration                         : 1h 41mn
Bit rate mode                    : Constant
Bit rate                         : 128 Kbps
Channel(s)                       : 2 channels
Sampling rate                    : 44.1 KHz
Compression mode                 : Lossy
Stream size                      : 93.2 MiB (7%)
Alignment                        : Split accross interleaves
Interleave, duration             : 40 ms (1.00 video frame)

Plot:
In a future where people stop aging at 25, but are engineered to live only one more year, having the means to buy your way out of the situation is a shot at immortal youth. Here, Will Salas finds himself accused of murder and on the run with a hostage - a connection that becomes an important part of the way against the system.


Thanks to RELiZLABS for the source files
Sharpened Resized and tweaked RGB
Video missing a few seconds here and there
but nothing important
Not the best video or LiNE 
so take it or leave it

[/code]
Screens:
[img]http://img849.imageshack.us/img849/49/14455743.png[/img]
[img]http://img690.imageshack.us/img690/2359/63357567.png[/img]
[img]http://img100.imageshack.us/img100/7048/57874559.png[/img]
[img]http://img198.imageshack.us/img198/1416/83879578.png[/img]
[img]http://img695.imageshack.us/img695/3672/timebu.jpg[/img]
